<?xml version="1.0" encoding="utf-8"?>
<!-- Generator: Adobe Illustrator 22.0.1, SVG Export Plug-In . SVG Version: 6.00 Build 0)  -->
<svg version="1.1" xmlns="http://www.w3.org/2000/svg" xmlns:xlink="http://www.w3.org/1999/xlink" x="0px" y="0px"
	 viewBox="0 0 1692.6 625.9" style="enable-background:new 0 0 1692.6 625.9;" xml:space="preserve">
<g id="Layer_1">
</g>
<g id="Layer_2">
	<g>
		
			<rect x="122.6" y="376.9" transform="matrix(0.9995 3.133549e-02 -3.133549e-02 0.9995 12.5145 -26.5402)" style="fill:#2275BB;" width="1460.9" height="18.2"/>
	</g>
	<g>
		<path style="fill:#84BBE5;" d="M1520,369.7l64.3,2l5.3-169.3l-35.8-1.1c-15.7-0.5-28.8,11.8-29.3,27.6L1520,369.7z"/>
		<path style="fill:#3D3F3F;" d="M1584.3,375.7c0,0-0.1,0-0.1,0l-64.3-2c-2.2-0.1-3.9-1.9-3.9-4.1l4.4-140.9
			c0.3-8.7,3.9-16.7,10.2-22.6c6.3-5.9,14.6-9.1,23.2-8.8l35.8,1.1c2.2,0.1,3.9,1.9,3.9,4.1l-5.3,169.3
			C1588.2,374,1586.4,375.7,1584.3,375.7z M1524.1,365.8l56.3,1.8l5.1-161.3l-31.9-1c-6.5-0.2-12.8,2.1-17.5,6.6
			c-4.8,4.5-7.5,10.5-7.7,17.1L1524.1,365.8z"/>
	</g>
	<g>
		<path style="fill:#84BBE5;" d="M1382.6,389.4l-49.6-1.6c-5.1-0.2-9.1-4.4-9-9.5l5-158.1c0.2-5.1,4.4-9.1,9.5-9l49.6,1.6
			c5.1,0.2,9.1,4.4,9,9.5l-5,158.1C1392,385.6,1387.7,389.6,1382.6,389.4z"/>
	</g>
	<g>
		<path style="fill:#84BBE5;" d="M1473.6,392.6L1424,391c-5.1-0.2-9.1-4.4-9-9.5l5-158.1c0.2-5.1,4.4-9.1,9.5-9l49.6,1.6
			c5.1,0.2,9.1,4.4,9,9.5l-5,158.1C1482.9,388.7,1478.7,392.8,1473.6,392.6z"/>
	</g>
	<g>
		
			<rect x="183" y="169.6" transform="matrix(0.9995 3.133549e-02 -3.133549e-02 0.9995 7.3161 -9.2598)" style="fill:#84BBE5;" width="232.1" height="118.3"/>
		<path style="fill:#3D3F3F;" d="M413.2,295.5c0,0-0.1,0-0.1,0l-232-7.3c-1.1,0-2.1-0.5-2.8-1.3c-0.7-0.8-1.1-1.8-1.1-2.9l3.7-118.2
			c0.1-2.2,1.9-3.9,4.1-3.9l232,7.3c1.1,0,2.1,0.5,2.8,1.3c0.7,0.8,1.1,1.8,1.1,2.9l-3.7,118.2C417.2,293.8,415.4,295.5,413.2,295.5
			z M185.4,280.4l224,7l3.5-110.2l-224-7L185.4,280.4z"/>
	</g>
	<g>
		<polygon style="fill:#84BBE5;" points="440.3,173.8 629.2,179.7 623.9,349.5 559.8,347.5 436.6,295 		"/>
		<path style="fill:#3D3F3F;" d="M623.9,353.5c0,0-0.1,0-0.1,0l-64.1-2c-0.5,0-1-0.1-1.4-0.3l-123.1-52.5c-1.5-0.6-2.5-2.2-2.4-3.8
			l3.7-121.1c0-1.1,0.5-2.1,1.3-2.8c0.8-0.7,1.8-1.1,2.9-1.1l188.9,5.9c2.2,0.1,3.9,1.9,3.9,4.1l-5.3,169.8c0,1.1-0.5,2.1-1.3,2.8
			C625.9,353.1,624.9,353.5,623.9,353.5z M560.7,343.5l59.4,1.9l5.1-161.8l-180.9-5.7l-3.5,114.4L560.7,343.5z"/>
	</g>
	<g>
		
			<rect x="848.4" y="190.4" transform="matrix(0.9995 3.133549e-02 -3.133549e-02 0.9995 9.1857 -32.35)" style="fill:#84BBE5;" width="376.6" height="173"/>
		<path style="fill:#3D3F3F;" d="M1222.2,373.3c0,0-0.1,0-0.1,0l-376.5-11.8c-1.1,0-2.1-0.5-2.8-1.3c-0.7-0.8-1.1-1.8-1.1-2.9
			l5.4-172.9c0.1-2.2,1.9-3.9,4.1-3.9l376.5,11.8c1.1,0,2.1,0.5,2.8,1.3c0.7,0.8,1.1,1.8,1.1,2.9l-5.4,172.9
			C1226.2,371.5,1224.4,373.3,1222.2,373.3z M849.9,353.6l368.5,11.6l5.2-164.9l-368.5-11.6L849.9,353.6z"/>
	</g>
	<g>
		
			<rect x="951.9" y="272.9" transform="matrix(3.125000e-02 -0.9995 0.9995 3.125000e-02 729.0983 1306.1412)" style="fill:#3D3F3F;" width="173" height="8"/>
	</g>
	<g>
		
			<rect x="1545.3" y="156.1" transform="matrix(0.9995 3.133549e-02 -3.133549e-02 0.9995 6.163 -48.981)" style="fill:#FECF0F;" width="41" height="32"/>
	</g>
	<g>
		<path style="fill:#84BBE5;" d="M714.8,368.3l-49.6-1.6c-5.1-0.2-9.1-4.4-9-9.5l5-158.1c0.2-5.1,4.4-9.1,9.5-9l49.6,1.6
			c5.1,0.2,9.1,4.4,9,9.5l-5,158.1C724.1,364.5,719.9,368.5,714.8,368.3z"/>
	</g>
	<g>
		<path style="fill:#84BBE5;" d="M805.7,371.5l-49.6-1.6c-5.1-0.2-9.1-4.4-9-9.5l5-158.1c0.2-5.1,4.4-9.1,9.5-9l49.6,1.6
			c5.1,0.2,9.1,4.4,9,9.5l-5,158.1C815.1,367.6,810.8,371.7,805.7,371.5z"/>
	</g>
	<g>
		<path style="fill:#3D3F3F;" d="M350.6,405.2c-43.8-0.1-79.4,35.3-79.5,79.1s35.3,79.4,79.1,79.5s79.4-35.3,79.5-79.1
			C429.9,440.9,394.4,405.3,350.6,405.2z M350.5,519.7c-18.9,0-34.2-15.3-34.2-34.2c0-18.9,15.3-34.2,34.2-34.2
			c18.9,0,34.2,15.3,34.2,34.2C384.7,504.4,369.4,519.7,350.5,519.7z"/>
	</g>
	<g>
		<path style="fill:#3D3F3F;" d="M1109.9,541.7c0.9,1.1,1.3,2.6,1.3,4.1c0,3.7-3,6.8-6.8,6.8c-0.2,0-0.5,0-0.7,0v2.8h16.4v-13.6
			H1109.9z"/>
	</g>
	<g>
		<path style="fill:#3D3F3F;" d="M1260.4,552.6h-3.8v0c-0.2,0-0.5,0-0.7,0c-3.7,0-6.8-3-6.8-6.8c0-0.9,0.2-1.8,0.5-2.7
			c0.2-0.4,0.4-0.8,0.6-1.2c0.1-0.1,0.1-0.2,0.2-0.3h0c5.8-11,9.1-23.5,9.1-36.9c0-43.8-35.5-79.3-79.3-79.3
			c-43.8,0-79.3,35.5-79.3,79.3c0,13.3,3.3,25.8,9.1,36.9h0c0,0.1,0.1,0.1,0.1,0.2c0.2,0.4,0.4,0.7,0.6,1.1c0.4,0.9,0.6,1.8,0.6,2.8
			c0,3.7-3,6.8-6.8,6.8c-0.2,0-0.5,0-0.7,0v0h-6.2c-3.3,0-6,2.7-6,6c0,3.3,2.7,6,6,6h163c3.3,0,6-2.7,6-6
			C1266.4,555.2,1263.7,552.6,1260.4,552.6z M1180.2,470.6c18.9,0,34.2,15.3,34.2,34.2c0,18.9-15.3,34.2-34.2,34.2
			s-34.2-15.3-34.2-34.2C1146,485.9,1161.3,470.6,1180.2,470.6z"/>
	</g>
	<g>
		<path style="fill:#FECE05;" d="M127.6,372.8l-2.2,70.6l140.7,4.4c13.9-34.8,48.4-58.9,88-57.6s72.6,27.4,84.3,63l655.6,20.6
			c13.6-35.3,48.4-59.9,88.4-58.7c40,1.3,73.2,28,84.6,64.1l318.6,10l2.2-70.6L127.6,372.8z"/>
	</g>
	<g>
		<g>
			<path style="fill:#3D3F3F;" d="M436.9,514.6l655.5,20.5c-0.9-2.6-1.6-5.3-2.2-8.1l-650.6-20.4C438.7,509.4,437.9,512,436.9,514.6
				z"/>
		</g>
		<g>
			<path style="fill:#3D3F3F;" d="M1594.4,140.3c-0.7-0.8-1.7-1.2-2.8-1.3L132.8,93.3c-1,0-2.1,0.4-2.9,1.1s-1.2,1.7-1.3,2.8
				L116,500.6c-0.1,2.2,1.7,4.1,3.9,4.1l143.8,4.5c-0.8-2.6-1.5-5.3-2.1-8.1l-137.5-4.3l12.4-395.4l1450.8,45.5l-12.4,395.4
				l-307.5-9.6c-0.8,2.7-1.7,5.3-2.7,7.9l313.9,9.8c0,0,0.1,0,0.1,0c2.2,0,3.9-1.7,4-3.9l12.6-403.4
				C1595.5,142.1,1595.1,141.1,1594.4,140.3z"/>
		</g>
	</g>
	<g>
		<defs>
			<path id="SVGID_277_" d="M1331.7,418.1l52,1.6c4.4,0.1,7.9,2.2,7.9,4.7l-2.7,89c-0.1,2.5-3.7,4.3-8.1,4.2l-52-1.6
				c-4.4-0.1-7.9-2.2-7.9-4.7l2.7-89C1323.7,419.9,1327.3,418,1331.7,418.1z"/>
		</defs>
		<use xlink:href="#SVGID_277_"  style="overflow:visible;fill-rule:evenodd;clip-rule:evenodd;fill:#84BBE5;"/>
		<clipPath id="SVGID_2_">
			<use xlink:href="#SVGID_277_"  style="overflow:visible;"/>
		</clipPath>
		<g style="clip-path:url(#SVGID_2_);">
			<defs>
				
					<rect id="SVGID_279_" x="578.2" y="-401.3" transform="matrix(3.049082e-02 -0.9995 0.9995 3.049082e-02 341.9709 1323.9535)" width="550.6" height="1774"/>
			</defs>
			<use xlink:href="#SVGID_279_"  style="overflow:visible;fill:#84BBE5;"/>
			<clipPath id="SVGID_4_">
				<use xlink:href="#SVGID_279_"  style="overflow:visible;"/>
			</clipPath>
			<g style="clip-path:url(#SVGID_4_);">
				
					<rect x="1304.5" y="428.9" transform="matrix(3.049082e-02 -0.9995 0.9995 3.049082e-02 847.2134 1809.2349)" style="fill:#84BBE5;" width="103.6" height="78"/>
			</g>
		</g>
	</g>
	<g>
		<defs>
			<path id="SVGID_281_" d="M1422.8,420.9l52,1.6c4.4,0.1,7.9,3.8,7.8,8.2l-2.5,82c-0.1,4.4-3.8,7.9-8.2,7.8l-52-1.6
				c-4.4-0.1-7.9-3.8-7.8-8.2l2.5-82C1414.6,424.2,1418.3,420.8,1422.8,420.9z"/>
		</defs>
		<use xlink:href="#SVGID_281_"  style="overflow:visible;fill-rule:evenodd;clip-rule:evenodd;fill:#84BBE5;"/>
		<clipPath id="SVGID_6_">
			<use xlink:href="#SVGID_281_"  style="overflow:visible;"/>
		</clipPath>
		<g style="clip-path:url(#SVGID_6_);">
			<defs>
				
					<rect id="SVGID_283_" x="363.3" y="-542.9" transform="matrix(3.049077e-02 -0.9995 0.9995 3.049077e-02 487.7059 1191.071)" width="989" height="1774"/>
			</defs>
			<use xlink:href="#SVGID_283_"  style="overflow:visible;fill:#84BBE5;"/>
			<clipPath id="SVGID_8_">
				<use xlink:href="#SVGID_283_"  style="overflow:visible;"/>
			</clipPath>
			<g style="clip-path:url(#SVGID_8_);">
				
					<rect x="1393.2" y="431.7" transform="matrix(3.049077e-02 -0.9995 0.9995 3.049077e-02 932.6785 1902.8856)" style="fill:#84BBE5;" width="108" height="78"/>
			</g>
		</g>
	</g>
	<g>
		
			<rect x="1234.7" y="367.1" transform="matrix(3.125000e-02 -0.9995 0.9995 3.125000e-02 989.083 1762.7311)" style="fill:#3D3F3F;" width="338.3" height="8"/>
	</g>
	<g>
		<path style="fill:#3D3F3F;" d="M1489.9,547.1c0,0-0.1,0-0.1,0l-182.6-5.7c-2.2-0.1-3.9-1.9-3.9-4.1l10.6-338.2
			c0-1.1,0.5-2.1,1.3-2.8c0.8-0.7,1.8-1.1,2.9-1.1l182.6,5.7c2.2,0.1,3.9,1.9,3.9,4.1l-10.6,338.2c0,1.1-0.5,2.1-1.3,2.8
			C1491.9,546.7,1490.9,547.1,1489.9,547.1z M1311.4,533.5L1486,539l10.4-330.2l-174.6-5.5L1311.4,533.5z"/>
	</g>
	<g>
		<path style="fill:#3D3F3F;" d="M821.1,526.7c0,0-0.1,0-0.1,0L639.5,521c-2.2-0.1-3.9-1.9-3.9-4.1l10.6-338.7
			c0-1.1,0.5-2.1,1.3-2.8c0.8-0.7,1.8-1.1,2.9-1.1l181.4,5.7c2.2,0.1,3.9,1.9,3.9,4.1l-10.6,338.7c0,1.1-0.5,2.1-1.3,2.8
			C823.1,526.3,822.1,526.7,821.1,526.7z M643.7,513.1l173.4,5.4l10.4-330.8l-173.4-5.4L643.7,513.1z"/>
	</g>
	<g>
		
			<rect x="566.5" y="346.2" transform="matrix(3.125000e-02 -0.9995 0.9995 3.125000e-02 362.6681 1074.5266)" style="fill:#3D3F3F;" width="338.3" height="8"/>
	</g>
	<g>
		
			<rect x="241.2" y="224.2" transform="matrix(3.125000e-02 -0.9995 0.9995 3.125000e-02 63.3928 521.8751)" style="fill:#3D3F3F;" width="119.5" height="8"/>
	</g>
</g>
</svg>
