<svg width="24" height="24" viewBox="0 0 24 24" xmlns="http://www.w3.org/2000/svg"><title>bus-icon</title><path d="M4 23h-.01C2.89 23 2 22.11 2 20.994V1.997C2 .894 2.898 0 3.99 0h16.02C21.11 0 22 .9 22 1.997V21.173v-.18c0 1.11-.898 2.007-1.99 2.007H20c-.005.553-.447 1-1.01 1h-1.98c-.555 0-1.005-.438-1.01-1H8c-.005.553-.447 1-1.01 1H5.01c-.555 0-1.005-.438-1.01-1zm9-18h8v8h-8V5zM6 1h12v2H6V1zM3 5h8v8H3V5zm14 13c.552 0 1-.448 1-1s-.448-1-1-1-1 .448-1 1 .448 1 1 1zm3 0c.552 0 1-.448 1-1s-.448-1-1-1-1 .448-1 1 .448 1 1 1zM7 18c.552 0 1-.448 1-1s-.448-1-1-1-1 .448-1 1 .448 1 1 1zm-3 0c.552 0 1-.448 1-1s-.448-1-1-1-1 .448-1 1 .448 1 1 1zm-1 1h18v2H3v-2zm9-1c1.105 0 2-.895 2-2s-.895-2-2-2-2 .895-2 2 .895 2 2 2zm0-.176c-1.007 0-1.824-.817-1.824-1.824 0-1.007.817-1.824 1.824-1.824 1.007 0 1.824.817 1.824 1.824 0 1.007-.817 1.824-1.824 1.824zm-1.32-2.804h2.64v.61h-.98v1.632h-.676V15.63h-.98l-.004-.61z" fill-rule="evenodd"/></svg>