<svg width="24" height="24" viewBox="0 0 24 24" xmlns="http://www.w3.org/2000/svg"><title>ferry-icon</title><g fill="#FFF" fill-rule="evenodd"><path d="M17.234 19.167c.843-2.41 3.304-5.86 5.762-7.497L24 11l-4-1.667V5l-4-2V2l-4-2-4 2v1L4 5v4.333L0 11l1.004.67c2.494 1.662 4.922 4.862 5.777 7.5l.088.027 1.264.42c.48.16 1.26.16 1.736 0l1.264-.42c.48-.16 1.26-.16 1.736 0l1.264.42c.48.16 1.26.16 1.736 0l1.264-.42.102-.03zM19 8.917V6l-6-3v3l5 2.5 1 .417zm-14 0V6l6-3v3L6 8.5l-1 .417zM12 13c1.105 0 2-.895 2-2s-.895-2-2-2-2 .895-2 2 .895 2 2 2zm0-.176c-1.007 0-1.824-.817-1.824-1.824 0-1.007.817-1.824 1.824-1.824 1.007 0 1.824.817 1.824 1.824 0 1.007-.817 1.824-1.824 1.824zm-1.32-2.804h2.64v.61h-.98v1.632h-.676V10.63h-.98l-.004-.61zM24 20.908l-2.132.71c-.48.16-1.26.16-1.736 0l-1.264-.42c-.48-.16-1.26-.16-1.736 0l-1.264.42c-.48.16-1.26.16-1.736 0l-1.264-.42c-.48-.16-1.26-.16-1.736 0l-1.264.42c-.48.16-1.26.16-1.736 0l-1.264-.42c-.48-.16-1.26-.16-1.736 0l-1.264.42c-.48.16-1.26.16-1.736 0L0 20.908v-1l2.132.71c.48.16 1.26.16 1.736 0l1.264-.42c.48-.16 1.26-.16 1.736 0l1.264.42c.48.16 1.26.16 1.736 0l1.264-.42c.48-.16 1.26-.16 1.736 0l1.264.42c.48.16 1.26.16 1.736 0l1.264-.42c.48-.16 1.26-.16 1.736 0l1.264.42c.48.16 1.26.16 1.736 0l2.132-.71v1zM24 22.908l-2.132.71c-.48.16-1.26.16-1.736 0l-1.264-.42c-.48-.16-1.26-.16-1.736 0l-1.264.42c-.48.16-1.26.16-1.736 0l-1.264-.42c-.48-.16-1.26-.16-1.736 0l-1.264.42c-.48.16-1.26.16-1.736 0l-1.264-.42c-.48-.16-1.26-.16-1.736 0l-1.264.42c-.48.16-1.26.16-1.736 0L0 22.908v-1l2.132.71c.48.16 1.26.16 1.736 0l1.264-.42c.48-.16 1.26-.16 1.736 0l1.264.42c.48.16 1.26.16 1.736 0l1.264-.42c.48-.16 1.26-.16 1.736 0l1.264.42c.48.16 1.26.16 1.736 0l1.264-.42c.48-.16 1.26-.16 1.736 0l1.264.42c.48.16 1.26.16 1.736 0l2.132-.71v1z"/></g></svg>