<svg width="24" height="24" viewBox="0 0 24 24" xmlns="http://www.w3.org/2000/svg"><title>parking-icon</title><rect width="20px" height="24px" x="2" fill="#FFF" rx="2" ry="2"></rect><g fill-rule="evenodd"><path d="M10.544,13.176 L10.544,17.464 L9,17.464 L9,6 L12.384,6 C13.109337,6 13.7399973,6.08399916 14.276,6.252 C14.8120027,6.42000084 15.2559982,6.65866512 15.608,6.968 C15.9600018,7.27733488 16.2226658,7.65066448 16.396,8.088 C16.5693342,8.52533552 16.656,9.01333064 16.656,9.552 C16.656,10.085336 16.5626676,10.5733311 16.376,11.016 C16.1893324,11.4586689 15.9160018,11.8399984 15.556,12.16 C15.1959982,12.4800016 14.749336,12.7293324 14.216,12.908 C13.682664,13.0866676 13.0720034,13.176 12.384,13.176 L10.544,13.176 Z M10.544,11.944 L12.384,11.944 C12.8266689,11.944 13.2173316,11.8853339 13.556,11.768 C13.8946684,11.6506661 14.1786655,11.4866677 14.408,11.276 C14.6373345,11.0653323 14.8106661,10.8133348 14.928,10.52 C15.0453339,10.2266652 15.104,9.90400176 15.104,9.552 C15.104,8.82132968 14.8786689,8.25066872 14.428,7.84 C13.9773311,7.42933128 13.2960046,7.224 12.384,7.224 L10.544,7.224 L10.544,11.944 Z  M2,2.00494659 C2,0.897645164 2.89821238,0 3.99079514,0 L20.0092049,0 C21.1086907,0 22,0.897026226 22,2.00494659 L22,21.9950534 C22,23.1023548 21.1017876,24 20.0092049,24 L3.99079514,24 C2.89130934,24 2,23.1029738 2,21.9950534 L2,2.00494659 Z M3,2.991155 L3,21.008845 C3,22.1103261 3.8932319,23 4.99508929,23 L19.0049107,23 C20.1073772,23 21,22.1085295 21,21.008845 L21,2.991155 C21,1.88967395 20.1067681,1 19.0049107,1 L4.99508929,1 C3.8926228,1 3,1.89147046 3,2.991155 Z"></path></g></svg>
