<svg width="24" height="24" viewBox="0 0 24 24" xmlns="http://www.w3.org/2000/svg"><title>subway-icon</title><g fill="#FFF" fill-rule="evenodd"><path d="M7.5 21l2.433-4.214-.866-.5-4 6.928.866.5.99-1.714h10.154l.99 1.714.866-.5-4-6.928-.866.5L16.5 21h-9z"/><path d="M3 2.955C3 1.85 3.88.785 4.96.603 4.96.603 7.5 0 12 0s7.04.603 7.04.603C20.12.796 21 1.846 21 2.955v15.043C21 19.103 20.107 20 19.005 20H4.995C3.893 20 3 19.107 3 17.998V2.955zM18.5 18c.828 0 1.5-.672 1.5-1.5s-.672-1.5-1.5-1.5-1.5.672-1.5 1.5.672 1.5 1.5 1.5zM19 4c.552 0 1-.448 1-1s-.448-1-1-1-1 .448-1 1 .448 1 1 1zM7 3c0-.552.456-1 .995-1h8.01c.55 0 .995.444.995 1 0 .552-.456 1-.995 1h-8.01C7.445 4 7 3.556 7 3zM5 4c.552 0 1-.448 1-1s-.448-1-1-1-1 .448-1 1 .448 1 1 1zm.5 14c.828 0 1.5-.672 1.5-1.5S6.328 15 5.5 15 4 15.672 4 16.5 4.672 18 5.5 18zM15 6h4c.552 0 1 .45 1 .99v4.02c0 .546-.444.99-1 .99h-4V6zm-5 0h4v6h-4V6zm-6 .99C4 6.445 4.444 6 5 6h4v6H5c-.552 0-1-.45-1-.99V6.99zM12 18c1.105 0 2-.895 2-2s-.895-2-2-2-2 .895-2 2 .895 2 2 2zm0-.176c-1.007 0-1.824-.817-1.824-1.824 0-1.007.817-1.824 1.824-1.824 1.007 0 1.824.817 1.824 1.824 0 1.007-.817 1.824-1.824 1.824zm-1.32-2.804h2.64v.61h-.98v1.632h-.676V15.63h-.98l-.004-.61z"/></g></svg>